# xmcd
#
# Track frame offsets:
#	180
#	15602
#	31647
#	49702
#	64575
#	78822
#	93800
#	111951
#	134696
#	156911
#	175851
#	192828
#
# Disc length: 2780 seconds
#
# Revision: 1
# Processed by: cddbd v1.5.2PL0 Copyright (c) Steve Scherf et al.
# Submitted via: audiograbber 1.83.01
#
DISCID=8d0ada0c
DTITLE=Roxy Mountain and Company - For Daddy
DYEAR=1997
DGENRE=Country
TTITLE0=One Promise Too Late
TTITLE1=Mercury Blues
TTITLE2=Even Cowgirls Get The Blues
TTITLE3=Boot Scootin' Boogie
TTITLE4=Eighteen Wheels And A Dozen Roses
TTITLE5=Lodi
TTITLE6=Blanket On the Ground
TTITLE7=Desperato
TTITLE8=For Daddy
TTITLE9=Big Bob
TTITLE10=Neon Moon
TTITLE11=Like A Sad Song
EXTD=Deutsche Countryband vom Niederrhein\nManager: Franz Voﬂ, Goch\n02823/3373
EXTT0=
EXTT1=
EXTT2=
EXTT3=
EXTT4=
EXTT5=
EXTT6=
EXTT7=
EXTT8=
EXTT9=
EXTT10=
EXTT11=
PLAYORDER=
